<?xml version="1.0" encoding="UTF-8" standalone="no"?>
<!DOCTYPE svg PUBLIC "-//W3C//DTD SVG 1.1//EN" "http://www.w3.org/Graphics/SVG/1.1/DTD/svg11.dtd">
<svg width="100%" height="100%" viewBox="0 0 176 238" version="1.1" xmlns="http://www.w3.org/2000/svg" xmlns:xlink="http://www.w3.org/1999/xlink" xml:space="preserve" xmlns:serif="http://www.serif.com/" style="fill-rule:evenodd;clip-rule:evenodd;stroke-linejoin:round;stroke-miterlimit:2;">
    <g transform="matrix(1,0,0,1,-175.953,-5.002)">
        <path d="M307.25,160.69C332.8,168.1 350.66,196.39 344.45,222.27C343.702,225.41 340.868,227.64 337.64,227.63C336.113,227.631 334.628,227.125 333.42,226.19C323.28,218.45 309.4,211.88 296.42,208.18L307.25,160.69Z" style="fill:rgb(176,181,202);fill-rule:nonzero;"/>
    </g>
    <g transform="matrix(1,0,0,1,-175.953,-5.002)">
        <path d="M221.5,162.02L232.37,209.64L232.36,209.64C214.95,214.87 195.75,228.72 188.8,235.71C188.372,236.144 187.787,236.388 187.177,236.388C186.141,236.388 185.23,235.683 184.97,234.68L183.71,229.85C176.3,201.31 193.33,170.66 221.5,162.02Z" style="fill:rgb(176,181,202);fill-rule:nonzero;"/>
    </g>
    <g transform="matrix(1,0,0,1,-175.953,-5.002)">
        <path d="M296.17,53.25C287.933,37.999 277.703,23.912 265.75,11.36C265.533,11.13 265.231,11 264.915,11C264.599,11 264.297,11.13 264.08,11.36C252.076,23.978 241.772,38.112 233.43,53.4C205.34,105.7 218.03,146.78 218.03,146.78L236.31,226.93C237.359,231.557 241.506,234.87 246.25,234.87L282.2,234.87C286.947,234.872 291.098,231.559 292.15,226.93L310.42,146.78C310.42,146.78 324,105.62 296.17,53.25Z" style="fill:rgb(109,116,134);fill-rule:nonzero;"/>
    </g>
    <g transform="matrix(1,0,0,1,-175.953,-5.002)">
        <path d="M262.31,227L244.03,146.817C244.03,146.817 231.34,105.717 259.43,53.417C264.753,43.575 270.936,34.224 277.908,25.473C274.226,20.809 270.189,16.098 265.75,11.365C265.533,11.135 265.231,11.005 264.915,11.005C264.599,11.005 264.297,11.135 264.08,11.365C252.076,23.982 241.772,38.113 233.43,53.4C205.34,105.7 218.03,146.779 218.03,146.779L236.31,227C237.354,231.639 241.495,234.972 246.25,235L272.25,235C267.495,234.972 263.354,231.639 262.31,227Z" style="fill:rgb(80,85,96);fill-rule:nonzero;"/>
    </g>
    <g transform="matrix(1,0,0,1,-175.953,-5.002)">
        <path d="M264.45,90.81L264.47,90.81C278.086,90.81 289.29,102.014 289.29,115.63C289.29,129.246 278.086,140.45 264.47,140.45C250.854,140.45 239.65,129.246 239.65,115.63L239.65,115.619C239.65,102.013 250.844,90.815 264.45,90.81Z" style="fill:rgb(173,240,229);fill-rule:nonzero;"/>
    </g>
    <g transform="matrix(1,0,0,1,-175.953,-5.002)">
        <path d="M265.65,115.63C265.643,107.021 270.119,99.002 277.45,94.489C273.54,92.084 269.037,90.81 264.447,90.81C250.831,90.81 239.627,102.014 239.627,115.63C239.627,129.246 250.831,140.45 264.447,140.45C269.037,140.45 273.54,139.176 277.45,136.771C270.119,132.258 265.643,124.239 265.65,115.63Z" style="fill:rgb(147,198,188);fill-rule:nonzero;"/>
    </g>
    <g transform="matrix(1,0,0,1,-175.953,-5.002)">
        <path d="M177.9,231.362L179.156,236.194C180.104,239.829 183.412,242.384 187.169,242.384C189.374,242.384 191.491,241.503 193.045,239.938C198.364,234.592 213.126,223.549 228.008,217.538L230.454,228.267C232.101,235.628 238.706,240.897 246.249,240.867L282.2,240.867C289.745,240.9 296.352,235.632 298,228.269L300.826,215.877C311.188,219.409 320.953,224.495 329.787,230.961C332.049,232.688 334.818,233.625 337.664,233.625C343.648,233.625 348.893,229.488 350.287,223.669C353.639,209.697 351.007,194.692 342.877,181.42C336.181,170.412 326.175,161.796 314.294,156.81L316.223,148.354C316.996,145.845 321.676,129.295 318.834,104.818C316.077,81.072 305.389,44.87 270.134,7.259C268.784,5.819 266.896,5.002 264.922,5.002C262.948,5.002 261.06,5.819 259.71,7.259C224.472,44.846 213.404,81.017 210.325,104.742C207.125,129.401 211.563,146.011 212.225,148.308L214.478,158.188C186.35,169.764 170.117,201.4 177.9,231.362ZM338.611,220.871C338.544,221.2 338.304,221.467 337.985,221.571C337.674,221.693 337.319,221.637 337.061,221.424C328.042,214.541 315.81,208.262 303.502,204.11L311.577,168.698C331.143,177.662 343.491,200.544 338.615,220.871L338.611,220.871ZM264.911,19.333C274.133,29.558 282.208,40.761 288.991,52.744C282.757,59.706 273.804,63.636 264.46,63.512C255.369,63.5 246.708,59.585 240.691,52.771C247.546,40.791 255.666,29.581 264.913,19.333L264.911,19.333ZM222.306,105.615C224.353,91.168 228.601,77.12 234.9,63.959C242.959,71.372 253.515,75.497 264.465,75.512C275.637,75.592 286.443,71.483 294.738,64C300.91,77.132 304.991,91.148 306.832,105.541C309.7,129.156 304.771,144.769 304.726,144.907C304.667,145.087 304.616,145.269 304.574,145.453L286.3,225.6C285.873,227.511 284.158,228.879 282.2,228.87L246.253,228.87C244.295,228.879 242.58,227.511 242.153,225.6L223.88,145.449C223.85,145.314 223.809,145.163 223.769,145.029C223.722,144.874 219.115,129.251 222.308,105.615L222.306,105.615ZM217.189,170.092L225.314,205.72C211.669,210.925 197.72,220.141 189.239,227.22C184.156,204.075 195.797,180.283 217.189,170.091L217.189,170.092Z" style="fill:rgb(50,77,109);fill-rule:nonzero;"/>
    </g>
    <g transform="matrix(1,0,0,1,-175.953,-5.002)">
        <path d="M264.454,146.453L264.469,146.453C281.378,146.453 295.292,132.539 295.292,115.63C295.292,98.721 281.378,84.807 264.469,84.807C247.56,84.807 233.646,98.721 233.646,115.63C233.662,132.527 247.557,146.429 264.454,146.453ZM264.454,96.808L264.469,96.808C274.795,96.808 283.292,105.305 283.292,115.631C283.292,125.957 274.795,134.454 264.469,134.454C254.143,134.454 245.646,125.957 245.646,115.631L245.646,115.63C245.655,105.313 254.137,96.824 264.454,96.808Z" style="fill:rgb(50,77,109);fill-rule:nonzero;"/>
    </g>
    <g transform="matrix(1,0,0,1,-175.953,-5.002)">
        <path d="M253.605,197.905C253.026,195.135 250.562,193.132 247.732,193.132C244.44,193.132 241.732,195.841 241.732,199.132C241.732,199.594 241.785,200.055 241.891,200.505L243.722,208.762C244.301,211.532 246.765,213.535 249.595,213.535C252.887,213.535 255.595,210.826 255.595,207.535C255.595,207.073 255.542,206.612 255.436,206.162L253.605,197.905Z" style="fill:rgb(50,77,109);fill-rule:nonzero;"/>
    </g>
    <g transform="matrix(1,0,0,1,-175.953,-5.002)">
        <path d="M238.729,186.246C239.364,188.948 241.795,190.873 244.57,190.873C247.861,190.873 250.57,188.165 250.57,184.873C250.57,184.461 250.527,184.05 250.443,183.646L244.133,155.196C243.526,152.46 241.078,150.496 238.276,150.496C234.984,150.496 232.275,153.204 232.275,156.496C232.275,156.933 232.323,157.369 232.418,157.796L238.729,186.246Z" style="fill:rgb(50,77,109);fill-rule:nonzero;"/>
    </g>
</svg>
